# xmcd
#
# Track frame offsets: 
#        150
#        42139
#        87883
#        105731
#        179931
#        205804
#        221287
#        260645
#
# Disc length: 4090 seconds
#
# Revision: 2
# Processed by: cddbd v1.5.2PL0 Copyright (c) Steve Scherf et al.
# Submitted via: ExactAudioCopy v1.0b4
#
DISCID=710ff808
DTITLE=諏訪内晶子 - Poeme
DYEAR=2004
DGENRE=Classical
TTITLE0=Intoroduction et Rondo Capriccioso, op.28
TTITLE1=Havanaise, op.83
TTITLE2=Guitare
TTITLE3=Poeme, op.25
TTITLE4=Sicilienne et Rigaudon-in the style of Francois Francoeur
TTITLE5=La Preecieuse-in the style of Louis Couperin
TTITLE6=Reverie et Caprise, op.8
TTITLE7=Tzigane
EXTD=YEAR: 2004
EXTT0=
EXTT1=
EXTT2=
EXTT3=
EXTT4=
EXTT5=
EXTT6=
EXTT7=
PLAYORDER=
